<?xml version="1.0" encoding="UTF-8"?>
<svg id="a" xmlns="http://www.w3.org/2000/svg" viewBox="0 0 40.08 40.08">
    <path class="c"
          fill="#ced0d6"
          stroke="#ced0d6"
          d="M8.96,10.92c-.37-1.1-.38-1.75-.42-2.21-.06-.76-.15-.92-.09-1.88,.02-.22-.09-.42-.27-.56s-.43-.17-.65-.1c-.22,.07-5.1,1.49-4.26,9.91,.13,.95,.78,3.68,1.67,5.51-.42-.88-1.4-1.67-2-3.93-.08-.3-.24-.58-.57-.64-.32-.06-.66,.1-.78,.39-.07,.16-1.66,3.95,.82,8.51,.9,1.65,2.01,2.82,3.08,3.63l-1.57-.2c-.32-.04-.63,.12-.75,.4-.12,.27-.02,.59,.24,.76,.07,.04,7.04,4.67,9.11,6.52,1.4,1.24,3.87,2.01,6.24,2.01h2.54c2.46,0,4.89-.84,6.22-2.01,2.08-1.84,9.05-6.47,9.11-6.52,.27-.17,.36-.49,.24-.76-.12-.27-.44-.44-.75-.4l-1.56,.21c1.07-.81,2.18-1.97,3.08-3.63h0c2.48-4.56,.88-8.35,.82-8.51-.13-.29-.46-.45-.78-.39-.33,.06-.57,.33-.57,.64,0,.56-.44,1.38-1.09,2.28,.64-1.92,.9-3.53,.92-3.67,.82-8.39-4.22-10.03-4.43-10.1s-.47-.03-.65,.1c-.19,.13-.29,.34-.27,.56,.19,2.8-.36,5.04-.96,6.59v-3.67c0-.8-.06-1.46-.21-2.07C28.83,1.14,21.28,1.06,21.2,1.06c-.24,0-.47,.12-.6,.3-.13,.19-.14,.43-.03,.63,1.85,3.4,1.67,12.81,1.58,15.61-.04,1.11-.28,2.15-.73,3.09-.31,.66-.67,1.29-1.07,1.9-.11,.16-.23,.3-.35,.45-.11-.15-.23-.3-.33-.45-.05-.08-.11-.16-.15-.24,.25-.99,.33-2.03,.23-3.04-.12-1.14-.43-2.06-.69-2.66,1.46-.36,2.37-.9,2.75-1.61,.27-.51,.19-1.02,.04-1.3-.12-.22-.36-.36-.63-.36h-3.4c.06-5.59,.61-9.54,1.62-11.4,.18-.32,.03-.7-.32-.87,0,0-.13-.07-.32-.07-.77,.02-8.18,2.6-9.18,6.62-.21,.86-.31,1.34-.31,1.34-.11,.99-.19,1.28-.35,1.91Zm4.52,25.18c-1.39-1.23-4.73-3.56-6.99-5.11l2.75,.36c.38,.05,.73-.19,.79-.53,.06-.34-.18-.68-.56-.74-.04,0-3.63-.71-5.82-4.73-1.11-2.05-1.29-3.94-1.2-5.31,1.33,2.09,3.67,4.27,4.02,4.6,.26,.24,.68,.25,.96,.03s.32-.61,.11-.88c-2.24-2.73-3.02-7.64-3.03-7.65-.19-.99-.68-3.69,.57-6.05,1.49-2.81,2.29-2.64,2.25-2.75,.44,1.02,.3,2.56,.62,4.01,.11,.5,.31,1.28,.89,1.47,.02,0,.3,.09,.57,0,.95-.33,.47-2.41,1.47-5.1,.45-1.22,1.07-1.81,1.22-1.94,.92-.8,1.46-1.25,2.16-1.67,.76-.45,1.82-1.28,3.47-1.67-.82,2.21-1.25,5.82-1.31,10.73,0,.12-.11,.22-.23,.22h-2.87c-2.79-.02-3.6,2.23-3.85,3.55,0,.36,.32,.65,.7,.65h0c1.35,0,3.09,.2,3.69,1.16,.6,.94-.02,2.4-.34,2.92-4.95,6.29-1.34,11.54,1.11,14.28,.44,.5,.84,.88,1.32,1.31,.06,.06,.14,.1,.2,.16-1.13-.31-2.08-.79-2.65-1.31Zm22.88-10.75c-2.17,3.99-5.68,4.7-5.82,4.73h0c-.37,.07-.62,.4-.56,.74,.06,.35,.41,.58,.79,.53l2.75-.36c-2.27,1.55-5.61,3.88-6.99,5.11-1.93,1.71-6.94,2.57-9.63,.21-.19-.16-2.49-1.96-2.06-5.14,.15-1.38,.78-2.67,1.85-3.69,.36-.34,.76-.65,1.2-.91,1.63-.97,2.83-2.05,3.66-3.3,.44-.67,.84-1.36,1.17-2.06,.52-1.09,.8-2.29,.84-3.57,.12-3.38,.21-11.16-1.26-15.2,1.91,.28,5.73,1.37,6.71,5.5,.12,.51,.18,1.08,.18,1.8v6.46c0,.28,.19,.53,.48,.62s.61,0,.78-.24c.11-.14,2.56-3.3,2.54-8.65,1.2,.89,3,3.11,2.5,8.18,0,.05-.79,4.95-3.02,7.68-.22,.27-.18,.65,.11,.88,.27,.22,.69,.21,.96-.03,.36-.33,2.7-2.51,4.02-4.6,.1,1.37-.08,3.26-1.2,5.31Z"/>
    <path class="b"
          fill="#fff"
          stroke="#fff"
          d="M15.74,16.1c0-.35-.32-.62-.69-.63-.39,0-.71,.27-.72,.63v.03c0,.36,.33,.64,.72,.63,.39,0,.69-.3,.69-.66Z"/>
</svg>