<?xml version="1.0" encoding="UTF-8"?>
<svg id="a" xmlns="http://www.w3.org/2000/svg" viewBox="0 0 38 38">
  <defs>
    <style>
      .cls-1,
      .cls-2 {
        stroke-width: 0px;
      }

      .cls-2 {
        fill: #fff;
      }
    </style>
  </defs>
  <circle class="cls-2" cx="19" cy="19" r="19" />
  <path class="cls-2" d="m17.28,4c-.67-.53-2.87.87-3.74,1.5-.91.66-2.09,1.51-2.77,3-.84,1.85-.45,3.71-.87,3.76-.14.02-.28-.18-.4-.37-1.06-1.77-.27-3.72-.8-3.98-.46-.22-1.89.84-2.71,2.39-1.29,2.41-.55,5.05.04,7.05.86,2.91,2.27,4.66,1.99,4.82-.24.14-1.45-1.04-2.33-2.29-1.09-1.55-1.24-2.59-1.51-2.55-.41.05-.86,2.6.16,4.97.64,1.5,2,3.24,3.99,4.31.74.4,1.55.69,1.5.81-.1.25-3.98-1.04-4.23-.56-.14.27,1.02.92,3.49,2.66,3.45,2.42,3.41,2.72,4.85,3.33,2.24.93,4.26,1.01,5.17,1.02,1.2.03,2.34.05,3.64-.41,1.51-.54,1.9-1.43,3.52-2.61,3.41-2.49,5.81-3.63,5.63-3.98-.21-.4-3.33.73-3.52.35-.15-.31,1.99-.92,3.65-2.88,1.87-2.2,1.76-4.51,1.71-5.65-.04-.9-.24-1.02-.34-1.06-.95-.3-3.58,4.64-3.81,4.53-.17-.08,1.55-2.59,2.21-6.15.81-4.35-.68-6.34-1.08-6.83-.13-.16-1.17-1.42-1.79-1.21-.7.24.29,2.42-.66,5.15-.4,1.16-1.13,2.34-1.45,2.27-.32-.08-.04-1.37-.05-3.18-.02-2.27-.04-4.79-1.67-6.52-1.65-1.75-4.65-2.36-5.2-1.72-.2.24,0,.57.28,1.4.38,1.11.49,2.15.73,4.22.21,1.87.19,3.35.18,4.15-.02.86-.06,1.51-.14,2.61-.09,1.33-.14,1.99-.24,2.37-.33,1.24-1.34,3.1-2.19,3.04-1.65-.12-3.01-7.46-2.17-11.38.31-1.44.38-2.93.74-4.37.28-1.15.51-1.76.18-2.02h0Z" />
  <path class="cls-1" d="m9.65,11.28c-.31-.9-.31-1.43-.34-1.81-.05-.62-.13-.75-.07-1.54.01-.17-.07-.35-.23-.46s-.35-.14-.54-.08c-.18.05-4.19,1.22-3.5,8.1.11.78.64,3.01,1.37,4.51-.34-.71-1.15-1.36-1.65-3.22-.07-.25-.2-.48-.47-.52s-.54.08-.64.32c-.06.13-1.37,3.23.67,6.95.74,1.35,1.65,2.3,2.53,2.96l-1.29-.16c-.26-.03-.52.1-.62.33s-.02.48.2.62c.06.04,5.78,3.82,7.48,5.33,1.15,1.01,3.18,1.64,5.12,1.64h2.09c2.02,0,4.02-.69,5.11-1.64,1.7-1.51,7.43-5.28,7.48-5.33.22-.14.3-.4.2-.62-.1-.23-.36-.36-.62-.33l-1.28.17c.88-.66,1.79-1.61,2.53-2.96h0c2.04-3.72.72-6.82.67-6.95-.11-.24-.38-.37-.64-.32-.27.05-.47.27-.47.52,0,.46-.36,1.12-.9,1.86.52-1.57.74-2.89.76-3,.68-6.85-3.46-8.2-3.64-8.25s-.38-.03-.54.08c-.15.11-.24.28-.23.46.16,2.28-.29,4.11-.79,5.38v-3c0-.66-.05-1.2-.17-1.69-1.27-5.36-7.47-5.41-7.54-5.41-.2,0-.38.1-.49.25-.11.16-.11.35-.03.51,1.52,2.78,1.37,10.46,1.29,12.76-.03.91-.23,1.75-.6,2.53-.25.54-.55,1.05-.88,1.55-.09.13-.19.25-.29.37-.09-.12-.19-.25-.27-.37-.04-.06-.09-.14-.13-.2.21-.81.27-1.65.19-2.49-.1-.92-.35-1.68-.57-2.17,1.2-.3,1.94-.73,2.26-1.32.23-.42.16-.84.03-1.06-.1-.18-.3-.29-.52-.29h-2.79c.05-4.57.5-7.79,1.33-9.31.15-.27.03-.58-.26-.71,0,0-.11-.06-.26-.05-.63.02-6.72,2.12-7.54,5.41-.17.7-.25,1.1-.25,1.1-.09.8-.15,1.05-.29,1.55h.03Zm3.71,20.57c-1.14-1.01-3.88-2.91-5.74-4.17l2.26.3c.31.05.6-.16.65-.44.05-.28-.15-.55-.46-.6-.03,0-2.99-.58-4.78-3.87-.92-1.67-1.06-3.22-.99-4.33,1.09,1.7,3.01,3.48,3.3,3.76.21.19.56.21.79.03s.27-.49.09-.71c-1.84-2.23-2.48-6.24-2.49-6.25-.16-.8-.56-3.02.47-4.94,1.23-2.29,1.88-2.16,1.84-2.25.36.84.25,2.09.51,3.28.09.41.25,1.05.73,1.2.02,0,.25.07.46,0,.78-.27.38-1.97,1.21-4.17.37-1,.88-1.48,1-1.59.76-.66,1.2-1.02,1.77-1.36.62-.37,1.49-1.05,2.85-1.36-.67,1.81-1.03,4.75-1.07,8.76,0,.1-.09.17-.19.17h-2.35c-2.3-.02-2.96,1.83-3.16,2.9,0,.29.26.53.58.53h0c1.11,0,2.53.16,3.03.95.49.77-.02,1.96-.28,2.39-4.07,5.14-1.1,9.42.91,11.67.36.4.69.72,1.08,1.07.05.05.11.08.17.13-.93-.26-1.7-.65-2.18-1.07v-.02Zm18.79-8.78c-1.78,3.26-4.66,3.85-4.78,3.87h0c-.31.05-.51.33-.46.6.05.28.34.48.65.44l2.26-.3c-1.86,1.27-4.61,3.17-5.74,4.17-1.59,1.4-5.7,2.1-7.91.17-.15-.14-2.04-1.6-1.69-4.2.13-1.12.64-2.18,1.52-3.02.29-.28.62-.53.98-.74,1.34-.8,2.32-1.67,3-2.7.36-.55.69-1.11.96-1.68.42-.9.66-1.87.69-2.92.1-2.76.17-9.12-1.03-12.42,1.57.23,4.71,1.11,5.51,4.5.1.42.15.89.15,1.47v5.28c0,.23.16.43.4.5s.5,0,.64-.19c.09-.12,2.1-2.7,2.09-7.06.98.73,2.47,2.54,2.06,6.69,0,.05-.65,4.04-2.48,6.28-.18.23-.15.53.09.71.23.18.57.17.79-.03.29-.27,2.22-2.05,3.3-3.76.08,1.12-.07,2.67-.99,4.34h0Z" />
  <path class="cls-2" d="m15.23,15.51c0-.28-.26-.51-.56-.51-.32,0-.58.23-.59.51v.03c0,.29.27.52.59.51.32,0,.57-.25.56-.54Z" />
</svg>
