<?xml version="1.0" encoding="UTF-8"?>
<svg id="a" xmlns="http://www.w3.org/2000/svg" viewBox="0 0 40.08 40.08">
    <defs>
        <style>.b{fill:#fff;}</style>
    </defs>
    <circle class="b" cx="20" cy="20" r="19"/>
    <g>
        <path class="b"
              d="M18.56,3.87c-.67-.58-2.87,.95-3.74,1.64-.91,.72-2.09,1.65-2.77,3.28-.84,2.02-.45,4.06-.87,4.11-.14,.02-.28-.2-.4-.41-1.06-1.94-.27-4.07-.8-4.35-.46-.24-1.89,.92-2.71,2.61-1.29,2.64-.55,5.53,.04,7.71,.86,3.18,2.27,5.1,1.99,5.27-.24,.15-1.45-1.14-2.33-2.51-1.09-1.7-1.24-2.83-1.51-2.79-.41,.06-.86,2.84,.16,5.44,.64,1.64,2,3.54,3.99,4.72,.74,.44,1.55,.76,1.5,.89-.1,.27-3.98-1.14-4.23-.61-.14,.3,1.02,1.01,3.49,2.91,3.45,2.65,3.41,2.98,4.85,3.64,2.24,1.02,4.26,1.1,5.17,1.12,1.2,.03,2.34,.06,3.64-.45,1.51-.59,1.9-1.57,3.52-2.86,3.41-2.73,5.81-3.97,5.63-4.36-.21-.44-3.33,.8-3.52,.38-.15-.34,1.99-1.01,3.65-3.15,1.87-2.41,1.76-4.94,1.71-6.18-.04-.99-.24-1.12-.34-1.16-.95-.33-3.58,5.08-3.81,4.96-.17-.09,1.55-2.83,2.21-6.73,.81-4.76-.68-6.94-1.08-7.47-.13-.17-1.17-1.55-1.79-1.32-.7,.26,.29,2.65-.66,5.64-.4,1.27-1.13,2.56-1.45,2.48-.32-.09-.04-1.5-.05-3.48-.02-2.48-.04-5.24-1.67-7.13-1.65-1.91-4.65-2.58-5.2-1.88-.2,.26,0,.62,.28,1.53,.38,1.22,.49,2.35,.73,4.62,.21,2.05,.19,3.67,.18,4.54-.02,.94-.06,1.65-.14,2.86-.09,1.45-.14,2.18-.24,2.59-.33,1.36-1.34,3.39-2.19,3.33-1.65-.13-3.01-8.16-2.17-12.45,.31-1.58,.38-3.21,.74-4.78,.28-1.26,.51-1.93,.18-2.21Z"/>
        <path d="M10.93,11.84c-.31-.98-.31-1.57-.34-1.98-.05-.68-.13-.82-.07-1.68,.01-.19-.07-.38-.23-.5s-.35-.15-.54-.09c-.18,.06-4.19,1.33-3.5,8.86,.11,.85,.64,3.29,1.37,4.93-.34-.78-1.15-1.49-1.65-3.52-.07-.27-.2-.52-.47-.57-.27-.05-.54,.09-.64,.35-.06,.14-1.37,3.53,.67,7.61,.74,1.48,1.65,2.52,2.53,3.24l-1.29-.18c-.26-.03-.52,.11-.62,.36-.1,.25-.02,.53,.2,.68,.06,.04,5.78,4.18,7.48,5.83,1.15,1.11,3.18,1.8,5.12,1.8h2.09c2.02,0,4.02-.75,5.11-1.8,1.7-1.65,7.43-5.78,7.48-5.83,.22-.15,.3-.44,.2-.68-.1-.25-.36-.39-.62-.36l-1.28,.19c.88-.72,1.79-1.76,2.53-3.24h0c2.04-4.07,.72-7.46,.67-7.61-.11-.26-.38-.4-.64-.35-.27,.05-.47,.29-.47,.57,0,.5-.36,1.23-.9,2.04,.52-1.72,.74-3.16,.76-3.28,.68-7.5-3.46-8.97-3.64-9.03s-.38-.03-.54,.09c-.15,.12-.24,.31-.23,.5,.16,2.5-.29,4.5-.79,5.89v-3.28c0-.72-.05-1.31-.17-1.85-1.27-5.86-7.47-5.92-7.54-5.92-.2,0-.38,.11-.49,.27-.11,.17-.11,.38-.03,.56,1.52,3.04,1.37,11.45,1.29,13.96-.03,1-.23,1.92-.6,2.77-.25,.59-.55,1.15-.88,1.7-.09,.14-.19,.27-.29,.4-.09-.13-.19-.27-.27-.4-.04-.07-.09-.15-.13-.22,.21-.89,.27-1.81,.19-2.72-.1-1.01-.35-1.84-.57-2.38,1.2-.33,1.94-.8,2.26-1.44,.23-.46,.16-.92,.03-1.16-.1-.2-.3-.32-.52-.32h-2.79c.05-5,.5-8.52,1.33-10.19,.15-.29,.03-.63-.26-.78,0,0-.11-.07-.26-.06-.63,.02-6.72,2.32-7.54,5.92-.17,.77-.25,1.2-.25,1.2-.09,.88-.15,1.15-.29,1.7Zm3.71,22.51c-1.14-1.1-3.88-3.18-5.74-4.56l2.26,.33c.31,.05,.6-.17,.65-.48,.05-.31-.15-.6-.46-.66-.03,0-2.99-.64-4.78-4.23-.92-1.83-1.06-3.52-.99-4.74,1.09,1.86,3.01,3.81,3.3,4.11,.21,.21,.56,.23,.79,.03s.27-.54,.09-.78c-1.84-2.44-2.48-6.83-2.49-6.84-.16-.88-.56-3.3,.47-5.41,1.23-2.51,1.88-2.36,1.84-2.46,.36,.92,.25,2.29,.51,3.59,.09,.45,.25,1.15,.73,1.31,.02,0,.25,.08,.46,0,.78-.29,.38-2.16,1.21-4.56,.37-1.09,.88-1.62,1-1.74,.76-.72,1.2-1.12,1.77-1.49,.62-.4,1.49-1.15,2.85-1.49-.67,1.98-1.03,5.2-1.07,9.59,0,.11-.09,.19-.19,.19h-2.35c-2.3-.02-2.96,2-3.16,3.17,0,.32,.26,.58,.58,.58h0c1.11,0,2.53,.18,3.03,1.04,.49,.84-.02,2.14-.28,2.61-4.07,5.62-1.1,10.31,.91,12.77,.36,.44,.69,.79,1.08,1.17,.05,.05,.11,.09,.17,.14-.93-.28-1.7-.71-2.18-1.17Zm18.79-9.61c-1.78,3.57-4.66,4.21-4.78,4.23h0c-.31,.06-.51,.36-.46,.66,.05,.31,.34,.52,.65,.48l2.26-.33c-1.86,1.39-4.61,3.47-5.74,4.56-1.59,1.53-5.7,2.3-7.91,.19-.15-.15-2.04-1.75-1.69-4.6,.13-1.23,.64-2.39,1.52-3.3,.29-.31,.62-.58,.98-.81,1.34-.87,2.32-1.83,3-2.95,.36-.6,.69-1.21,.96-1.84,.42-.98,.66-2.05,.69-3.19,.1-3.02,.17-9.98-1.03-13.59,1.57,.25,4.71,1.22,5.51,4.92,.1,.46,.15,.97,.15,1.61v5.78c0,.25,.16,.47,.4,.55s.5,0,.64-.21c.09-.13,2.1-2.95,2.09-7.73,.98,.8,2.47,2.78,2.06,7.32,0,.05-.65,4.42-2.48,6.87-.18,.25-.15,.58,.09,.78,.23,.2,.57,.19,.79-.03,.29-.29,2.22-2.24,3.3-4.11,.08,1.23-.07,2.92-.99,4.75Z"/>
        <path class="b"
              d="M16.51,16.47c0-.31-.26-.56-.56-.56-.32,0-.58,.25-.59,.56v.03c0,.32,.27,.57,.59,.56,.32,0,.57-.27,.56-.59Z"/>
    </g>
</svg>